<svg width="1em" height="1em" viewBox="0 0 24 24" fill="none" xmlns="http://www.w3.org/2000/svg" font-size="24px"><path d="M20.3333 12.3335C21.3864 12.9618 22 13.7159 22 14.5268C22 16.4457 18.5644 18.0466 14 18.4141C13.3538 18.4662 12.6849 18.4935 12 18.4935C11.776 18.4935 11.5537 18.4906 11.3333 18.4848C11.109 18.479 10.8867 18.4702 10.6667 18.4585M3.67756 12.3335C2.62005 12.961 2 13.7137 2 14.5268C2 16.2538 4.78277 17.7232 8.66667 18.2678M8.66667 18.2678L7.33333 16.2535M8.66667 18.2678L6 19.3335" stroke="currentColor" stroke-width="1.5" stroke-miterlimit="10" stroke-linecap="round" stroke-linejoin="round"/><path d="M5.58569 7.02734H6.33765C6.69572 7.02734 6.96102 6.93783 7.13354 6.75879C7.30607 6.57975 7.39233 6.34212 7.39233 6.0459C7.39233 5.75944 7.30607 5.53646 7.13354 5.37695C6.96427 5.21745 6.7299 5.1377 6.43042 5.1377C6.16024 5.1377 5.934 5.21257 5.75171 5.3623C5.56942 5.50879 5.47827 5.70085 5.47827 5.93848H4.06714C4.06714 5.56738 4.16642 5.23535 4.36499 4.94238C4.56681 4.64616 4.84676 4.41504 5.20483 4.24902C5.56616 4.08301 5.9633 4 6.39624 4C7.14819 4 7.73739 4.18066 8.16382 4.54199C8.59025 4.90007 8.80347 5.39486 8.80347 6.02637C8.80347 6.35189 8.70418 6.65137 8.50562 6.9248C8.30705 7.19824 8.04663 7.4082 7.72437 7.55469C8.12476 7.69792 8.42261 7.91276 8.61792 8.19922C8.81649 8.48568 8.91577 8.82422 8.91577 9.21484C8.91577 9.84635 8.68465 10.3525 8.22241 10.7334C7.76343 11.1143 7.1547 11.3047 6.39624 11.3047C5.6866 11.3047 5.10555 11.1175 4.65308 10.7432C4.20386 10.3688 3.97925 9.87402 3.97925 9.25879H5.39038C5.39038 9.52572 5.48966 9.74381 5.68823 9.91309C5.89006 10.0824 6.13745 10.167 6.43042 10.167C6.76571 10.167 7.02775 10.0791 7.21655 9.90332C7.40861 9.72428 7.50464 9.48828 7.50464 9.19531C7.50464 8.48568 7.11401 8.13086 6.33276 8.13086H5.58569V7.02734Z" fill="currentColor"/><path d="M13.7205 4.02441V5.18652H13.5837C12.9457 5.19629 12.4314 5.3623 12.0408 5.68457C11.6534 6.00684 11.4207 6.45443 11.3425 7.02734C11.7201 6.64323 12.197 6.45117 12.7732 6.45117C13.3917 6.45117 13.8832 6.67253 14.2478 7.11523C14.6124 7.55794 14.7947 8.14062 14.7947 8.86328C14.7947 9.32552 14.6938 9.74381 14.4919 10.1182C14.2934 10.4925 14.0102 10.7839 13.6423 10.9922C13.2778 11.2005 12.8643 11.3047 12.4021 11.3047C11.6534 11.3047 11.0479 11.0443 10.5857 10.5234C10.1267 10.0026 9.89722 9.30762 9.89722 8.43848V7.93066C9.89722 7.15918 10.0421 6.47884 10.3318 5.88965C10.6248 5.2972 11.043 4.83984 11.5867 4.51758C12.1335 4.19206 12.7667 4.02767 13.4861 4.02441H13.7205ZM12.3435 7.58398C12.1156 7.58398 11.9089 7.64421 11.7234 7.76465C11.5378 7.88184 11.4011 8.03809 11.3132 8.2334V8.66309C11.3132 9.13509 11.406 9.50456 11.5916 9.77148C11.7771 10.0352 12.0375 10.167 12.3728 10.167C12.6755 10.167 12.9197 10.0482 13.1052 9.81055C13.294 9.56966 13.3884 9.25879 13.3884 8.87793C13.3884 8.49056 13.294 8.17806 13.1052 7.94043C12.9164 7.7028 12.6625 7.58398 12.3435 7.58398Z" fill="currentColor"/><path d="M20.4197 8.26758C20.4197 9.25065 20.2162 10.0026 19.8093 10.5234C19.4024 11.0443 18.8067 11.3047 18.0222 11.3047C17.2475 11.3047 16.655 11.0492 16.2449 10.5381C15.8347 10.027 15.6248 9.2946 15.615 8.34082V7.03223C15.615 6.03939 15.8201 5.28581 16.2302 4.77148C16.6436 4.25716 17.2377 4 18.0125 4C18.7872 4 19.3796 4.25553 19.7898 4.7666C20.2 5.27441 20.4099 6.00521 20.4197 6.95898V8.26758ZM19.0085 6.83203C19.0085 6.24284 18.9272 5.81478 18.7644 5.54785C18.6049 5.27767 18.3542 5.14258 18.0125 5.14258C17.6804 5.14258 17.4347 5.27116 17.2751 5.52832C17.1189 5.78223 17.0359 6.18099 17.0261 6.72461V8.45312C17.0261 9.03255 17.1042 9.46387 17.2605 9.74707C17.42 10.027 17.6739 10.167 18.0222 10.167C18.3673 10.167 18.6163 10.0319 18.7693 9.76172C18.9223 9.49154 19.002 9.07812 19.0085 8.52148V6.83203Z" fill="currentColor"/></svg>