<svg width="1em" height="1em" viewBox="0 0 24 24" fill="currentColor" xmlns="http://www.w3.org/2000/svg"><path fill-rule="evenodd" clip-rule="evenodd" d="M2.77997 11.25H6.82361C6.97559 8.11219 8.06266 5.7206 9.15374 4.08398C9.43416 3.66335 9.71488 3.29245 9.9802 2.97117C6.07956 3.83993 3.10719 7.17183 2.77997 11.25ZM12 2.9951C11.9487 3.044 11.8938 3.09741 11.8359 3.15533C11.4482 3.54302 10.9257 4.13023 10.4018 4.91603C9.44055 6.35792 8.47534 8.46642 8.32559 11.25H15.6744C15.5247 8.46642 14.5595 6.35792 13.5982 4.91603C13.0743 4.13023 12.5518 3.54302 12.1641 3.15533C12.1062 3.09741 12.0513 3.044 12 2.9951ZM15.6744 12.75H8.32559C8.47534 15.5336 9.44055 17.6421 10.4018 19.084C10.9257 19.8698 11.4482 20.457 11.8359 20.8447C11.8938 20.9026 11.9487 20.956 12 21.0049C12.0513 20.956 12.1062 20.9026 12.1641 20.8447C12.5518 20.457 13.0743 19.8698 13.5982 19.084C14.5595 17.6421 15.5247 15.5336 15.6744 12.75ZM9.98021 21.0288C9.71489 20.7076 9.43416 20.3367 9.15374 19.916C8.06266 18.2794 6.97559 15.8878 6.82361 12.75H2.77997C3.10719 16.8282 6.07956 20.1601 9.98021 21.0288ZM14.0198 21.0288C14.2851 20.7076 14.5658 20.3367 14.8463 19.916C15.9373 18.2794 17.0244 15.8878 17.1764 12.75H21.22C20.8928 16.8282 17.9204 20.1601 14.0198 21.0288ZM21.22 11.25H17.1764C17.0244 8.11219 15.9373 5.7206 14.8463 4.08398C14.5658 3.66335 14.2851 3.29245 14.0198 2.97117C17.9204 3.83993 20.8928 7.17183 21.22 11.25ZM1.25 12C1.25 6.06294 6.06294 1.25 12 1.25C17.9371 1.25 22.75 6.06294 22.75 12C22.75 17.9371 17.9371 22.75 12 22.75C6.06294 22.75 1.25 17.9371 1.25 12Z"/></svg>